<?xml version="1.0" standalone="no"?>
<!DOCTYPE svg PUBLIC "-//W3C//DTD SVG 20010904//EN"
 "http://www.w3.org/TR/2001/REC-SVG-20010904/DTD/svg10.dtd">
<svg version="1.0" xmlns="http://www.w3.org/2000/svg"
 width="50.000000pt" height="50.000000pt" viewBox="0 0 50.000000 50.000000"
 preserveAspectRatio="xMidYMid meet">

<g transform="translate(0.000000,50.000000) scale(0.100000,-0.100000)"
fill="#000000" stroke="none">
<path d="M165 461 c-22 -10 -50 -29 -62 -42 -69 -75 -70 -206 -2 -283 16 -19
29 -36 29 -40 0 -3 -18 -6 -40 -6 -38 0 -40 -2 -40 -30 l0 -30 80 0 80 0 0 36
c0 30 -9 46 -44 84 -70 74 -74 159 -13 227 64 69 176 53 217 -31 36 -75 22
-143 -44 -205 -29 -28 -36 -42 -36 -73 l0 -38 80 0 80 0 0 30 c0 28 -2 30 -40
30 -22 0 -40 3 -40 6 0 4 13 21 29 40 71 80 65 221 -10 291 -58 53 -152 67
-224 34z"/>
</g>
</svg>
