<?xml version="1.0" standalone="no"?>
<!DOCTYPE svg PUBLIC "-//W3C//DTD SVG 20010904//EN"
 "http://www.w3.org/TR/2001/REC-SVG-20010904/DTD/svg10.dtd">
<svg version="1.0" xmlns="http://www.w3.org/2000/svg"
 width="24.000000pt" height="24.000000pt" viewBox="0 0 24.000000 24.000000"
 preserveAspectRatio="xMidYMid meet">

<g transform="translate(0.000000,24.000000) scale(0.100000,-0.100000)"
fill="#000000" stroke="none">
<path d="M40 219 c0 -6 14 -28 30 -49 37 -47 37 -56 0 -100 -47 -54 -41 -60
50 -60 73 0 80 2 80 19 0 16 -8 20 -46 23 l-46 3 21 27 c26 33 26 43 0 79
l-20 29 45 0 c39 0 46 3 46 20 0 18 -7 20 -80 20 -52 0 -80 -4 -80 -11z"/>
</g>
</svg>
