<?xml version="1.0" standalone="no"?>
<!DOCTYPE svg PUBLIC "-//W3C//DTD SVG 20010904//EN"
 "http://www.w3.org/TR/2001/REC-SVG-20010904/DTD/svg10.dtd">
<svg version="1.0" xmlns="http://www.w3.org/2000/svg"
 width="100.000000pt" height="100.000000pt" viewBox="0 0 100.000000 100.000000"
 preserveAspectRatio="xMidYMid meet">

<g transform="translate(0.000000,100.000000) scale(0.100000,-0.100000)"
fill="#000000" stroke="none">
<path d="M454 971 c-22 -15 -48 -40 -57 -55 -13 -20 -26 -26 -51 -26 -31 0
-35 -4 -48 -42 -13 -43 -13 -43 -69 -48 -47 -4 -63 -11 -108 -49 -83 -70 -74
-75 112 -79 l157 -3 0 -35 c0 -27 5 -37 20 -41 19 -5 20 -14 20 -148 0 -134
-1 -143 -20 -148 -15 -4 -20 -14 -20 -41 0 -29 -4 -36 -20 -36 -16 0 -20 7
-20 35 0 29 -5 37 -25 45 -25 9 -25 11 -25 125 0 99 -2 115 -16 115 -15 0 -91
-53 -106 -75 -4 -5 -8 -45 -8 -87 0 -71 -2 -78 -20 -78 -17 0 -20 -7 -20 -39
0 -36 -3 -40 -27 -43 -24 -3 -29 -8 -33 -43 -4 -35 -9 -41 -35 -45 -29 -5 -30
-6 -30 -65 l0 -60 495 0 495 0 0 60 c0 59 -1 60 -30 65 -26 4 -31 10 -35 45
-4 35 -9 40 -32 43 -25 3 -28 7 -28 43 0 32 -3 39 -20 39 -19 0 -20 7 -20 144
0 135 1 144 20 149 15 4 20 14 20 40 0 31 3 36 28 39 19 2 27 9 27 23 0 14
-57 58 -209 162 -115 79 -213 143 -216 143 -4 0 -25 -13 -46 -29z m211 -131
c83 -57 154 -107 160 -112 5 -4 -144 -8 -330 -8 -339 1 -340 1 -316 20 17 15
38 20 82 20 l59 0 11 45 c11 42 14 45 43 45 25 0 36 6 47 26 17 33 68 76 83
71 6 -3 79 -51 161 -107z m-97 -187 c-3 -15 -14 -18 -68 -18 -54 0 -65 3 -68
18 -3 15 5 17 68 17 63 0 71 -2 68 -17z m82 -18 c0 -29 5 -37 25 -45 25 -9 25
-10 25 -145 0 -135 0 -136 -25 -145 -20 -8 -25 -16 -25 -45 0 -28 -4 -35 -20
-35 -16 0 -20 7 -20 36 0 27 -5 37 -20 41 -19 5 -20 14 -20 148 0 134 1 143
20 148 15 4 20 14 20 41 0 29 4 36 20 36 16 0 20 -7 20 -35z m180 15 c0 -18
-7 -20 -65 -20 -58 0 -65 2 -65 20 0 18 7 20 65 20 58 0 65 -2 65 -20z m-310
-205 c0 -138 -1 -145 -20 -145 -19 0 -20 7 -20 145 0 138 1 145 20 145 19 0
20 -7 20 -145z m260 0 c0 -138 -1 -145 -20 -145 -19 0 -20 7 -20 145 0 138 1
145 20 145 19 0 20 -7 20 -145z m-520 -60 c0 -78 -2 -85 -20 -85 -18 0 -20 7
-20 73 0 68 10 97 32 97 4 0 8 -38 8 -85z m40 -145 c0 -18 -7 -20 -65 -20 -58
0 -65 2 -65 20 0 18 7 20 65 20 58 0 65 -2 65 -20z m270 0 c0 -18 -7 -20 -70
-20 -63 0 -70 2 -70 20 0 18 7 20 70 20 63 0 70 -2 70 -20z m260 0 c0 -18 -7
-20 -65 -20 -58 0 -65 2 -65 20 0 18 7 20 65 20 58 0 65 -2 65 -20z m60 -90
c0 -20 -7 -20 -390 -20 -383 0 -390 0 -390 20 0 20 7 20 390 20 383 0 390 0
390 -20z m65 -85 c0 -20 -8 -20 -449 -23 -272 -1 -454 2 -459 7 -5 5 -7 17 -4
25 6 15 55 16 459 14 445 -3 453 -3 453 -23z"/>
</g>
</svg>
