<?xml version="1.0" standalone="no"?>
<!DOCTYPE svg PUBLIC "-//W3C//DTD SVG 20010904//EN"
 "http://www.w3.org/TR/2001/REC-SVG-20010904/DTD/svg10.dtd">
<svg version="1.0" xmlns="http://www.w3.org/2000/svg"
 width="64.000000pt" height="64.000000pt" viewBox="0 0 64.000000 64.000000"
 preserveAspectRatio="xMidYMid meet">

<g transform="translate(0.000000,64.000000) scale(0.100000,-0.100000)"
fill="#000000" stroke="none">
<path d="M88 594 c-53 -28 -72 -98 -43 -154 15 -30 61 -60 89 -60 13 0 16 -22
18 -132 3 -110 6 -133 18 -133 12 0 15 23 18 138 2 121 5 140 22 157 26 26 26
81 2 103 -23 21 -82 23 -82 3 0 -9 12 -16 33 -18 25 -2 33 -8 35 -26 5 -30
-24 -62 -55 -62 -33 0 -83 51 -83 85 0 16 12 38 29 56 l29 29 202 0 202 0 29
-29 c17 -18 29 -40 29 -56 0 -34 -50 -85 -83 -85 -31 0 -60 32 -55 62 2 18 10
24 36 26 20 2 32 9 32 18 0 12 -21 14 -132 12 -148 -3 -180 -21 -48 -26 93 -3
101 -22 9 -22 -33 0 -59 -4 -59 -10 0 -5 5 -10 10 -10 6 0 10 -33 10 -77 0
-84 12 -120 30 -93 5 8 10 48 10 88 0 65 2 72 20 72 19 0 20 -7 20 -160 0
-136 2 -160 15 -160 13 0 15 23 15 150 l0 150 20 -20 c18 -18 20 -33 20 -187
0 -165 8 -216 30 -183 5 8 10 88 10 178 0 140 2 162 15 162 29 0 75 30 90 60
30 57 10 127 -45 155 -42 22 -422 21 -462 -1z"/>
<path d="M310 195 c0 -8 5 -15 10 -15 6 0 10 7 10 15 0 8 -4 15 -10 15 -5 0
-10 -7 -10 -15z"/>
</g>
</svg>
