<?xml version="1.0" standalone="no"?>
<!DOCTYPE svg PUBLIC "-//W3C//DTD SVG 20010904//EN"
 "http://www.w3.org/TR/2001/REC-SVG-20010904/DTD/svg10.dtd">
<svg version="1.0" xmlns="http://www.w3.org/2000/svg"
 width="32.000000pt" height="32.000000pt" viewBox="0 0 32.000000 32.000000"
 preserveAspectRatio="xMidYMid meet">

<g transform="translate(0.000000,32.000000) scale(0.100000,-0.100000)"
fill="#000000" stroke="none">
<path d="M102 227 c-31 -33 -31 -105 1 -135 26 -25 45 -27 81 -11 20 9 29 9
41 -1 8 -7 19 -10 23 -6 4 4 -1 12 -11 17 -14 8 -17 24 -17 84 0 43 -4 75 -10
75 -5 0 -10 -5 -10 -12 0 -9 -3 -9 -12 0 -19 19 -63 14 -86 -11z m82 -13 c21
-20 21 -88 0 -108 -37 -37 -84 -7 -84 54 0 42 20 70 50 70 10 0 26 -7 34 -16z"/>
</g>
</svg>
