<?xml version="1.0" standalone="no"?>
<!DOCTYPE svg PUBLIC "-//W3C//DTD SVG 20010904//EN"
 "http://www.w3.org/TR/2001/REC-SVG-20010904/DTD/svg10.dtd">
<svg version="1.0" xmlns="http://www.w3.org/2000/svg"
 width="100.000000pt" height="100.000000pt" viewBox="0 0 100.000000 100.000000"
 preserveAspectRatio="xMidYMid meet">

<g transform="translate(0.000000,100.000000) scale(0.100000,-0.100000)"
fill="#000000" stroke="none">
<path d="M625 976 c-41 -18 -62 -43 -47 -58 9 -9 19 -8 39 2 16 7 43 16 61 20
27 7 32 5 32 -11 0 -12 -7 -19 -20 -19 -15 0 -22 -8 -26 -29 -4 -17 -14 -31
-25 -34 -18 -5 -19 -20 -21 -254 -3 -240 -4 -248 -23 -248 -19 0 -20 8 -25
235 -5 211 -7 235 -22 238 -27 5 -29 -24 -26 -267 l3 -223 26 -21 c22 -18 25
-26 18 -44 -8 -22 -13 -23 -144 -23 l-135 0 0 289 c0 227 -3 291 -13 300 -33
27 -37 -7 -37 -305 0 -241 -2 -293 -14 -297 -8 -3 -17 -21 -21 -39 -4 -18 -16
-39 -27 -46 -15 -11 -16 -17 -7 -28 17 -21 641 -21 658 0 9 11 8 17 -7 28 -11
7 -23 28 -26 45 -4 18 -14 36 -22 41 -11 6 -14 72 -16 382 l-3 375 -50 2 c-27
2 -64 -3 -80 -11z m-147 -798 c-3 -22 -7 -23 -115 -26 -105 -2 -113 -1 -113
16 0 10 3 22 7 25 3 4 55 7 115 7 108 0 109 0 106 -22z"/>
<path d="M340 849 c0 -14 5 -19 17 -17 26 5 29 38 4 38 -15 0 -21 -6 -21 -21z"/>
<path d="M428 573 c-3 -220 -4 -228 -23 -228 -19 0 -20 8 -25 205 -4 173 -7
205 -20 205 -13 0 -15 -31 -18 -212 -2 -202 -1 -214 18 -233 25 -25 61 -26 91
-1 24 19 24 19 24 253 l0 233 -22 3 -23 3 -2 -228z"/>
<path d="M130 30 c0 -20 7 -20 370 -20 363 0 370 0 370 20 0 20 -7 20 -370 20
-363 0 -370 0 -370 -20z"/>
</g>
</svg>
