<?xml version="1.0" standalone="no"?>
<!DOCTYPE svg PUBLIC "-//W3C//DTD SVG 20010904//EN"
 "http://www.w3.org/TR/2001/REC-SVG-20010904/DTD/svg10.dtd">
<svg version="1.0" xmlns="http://www.w3.org/2000/svg"
 width="32.000000pt" height="32.000000pt" viewBox="0 0 32.000000 32.000000"
 preserveAspectRatio="xMidYMid meet">

<g transform="translate(0.000000,32.000000) scale(0.100000,-0.100000)"
fill="#000000" stroke="none">
<path d="M90 261 c0 -5 9 -11 20 -14 34 -9 34 -48 1 -126 -37 -87 -21 -96 17
-9 l28 61 18 -49 c23 -61 33 -74 57 -74 24 0 25 16 1 22 -12 4 -30 34 -52 89
-18 46 -38 90 -43 97 -11 14 -47 17 -47 3z"/>
</g>
</svg>
