<?xml version="1.0" standalone="no"?>
<!DOCTYPE svg PUBLIC "-//W3C//DTD SVG 20010904//EN"
 "http://www.w3.org/TR/2001/REC-SVG-20010904/DTD/svg10.dtd">
<svg version="1.0" xmlns="http://www.w3.org/2000/svg"
 width="32.000000pt" height="32.000000pt" viewBox="0 0 32.000000 32.000000"
 preserveAspectRatio="xMidYMid meet">

<g transform="translate(0.000000,32.000000) scale(0.100000,-0.100000)"
fill="#000000" stroke="none">
<path d="M90 150 c0 -67 4 -110 10 -110 6 0 10 16 10 35 0 33 1 34 20 23 15
-10 27 -10 50 -1 16 6 30 7 30 2 0 -5 5 -9 10 -9 6 0 10 35 10 85 0 50 -4 85
-10 85 -6 0 -10 -26 -10 -59 0 -63 -15 -91 -50 -91 -35 0 -50 28 -50 91 0 33
-4 59 -10 59 -6 0 -10 -43 -10 -110z"/>
</g>
</svg>
