<?xml version="1.0" standalone="no"?>
<!DOCTYPE svg PUBLIC "-//W3C//DTD SVG 20010904//EN"
 "http://www.w3.org/TR/2001/REC-SVG-20010904/DTD/svg10.dtd">
<svg version="1.0" xmlns="http://www.w3.org/2000/svg"
 width="32.000000pt" height="32.000000pt" viewBox="0 0 32.000000 32.000000"
 preserveAspectRatio="xMidYMid meet">

<g transform="translate(0.000000,32.000000) scale(0.100000,-0.100000)"
fill="#000000" stroke="none">
<path d="M50 175 c0 -78 23 -112 68 -100 34 8 50 8 84 0 45 -12 68 22 68 100
0 85 -18 84 -22 -1 -2 -51 -7 -70 -20 -78 -26 -16 -52 4 -56 43 -4 40 -20 40
-24 0 -4 -39 -30 -59 -56 -43 -13 8 -18 27 -20 78 -4 85 -22 86 -22 1z"/>
</g>
</svg>
